<?xml version="1.0" encoding="utf-8"?>
<!-- https://cdn2-main.melvor.net/assets/media/skills/cartography/cartography.svg -->
<!-- Generator: Adobe Illustrator 26.2.1, SVG Export Plug-In . SVG Version: 6.00 Build 0)  -->
<svg version="1.1" id="Layer_1" xmlns="http://www.w3.org/2000/svg" xmlns:xlink="http://www.w3.org/1999/xlink" x="0px"
  y="0px" viewBox="0 0 512 512" style="enable-background:new 0 0 512 512;" xml:space="preserve">
  <style type="text/css">
    .st0 {
      fill-rule: evenodd;
      clip-rule: evenodd;
      fill: #D19034;
    }

    .st1 {
      fill: #3C3B40;
    }

    .st2 {
      fill-rule: evenodd;
      clip-rule: evenodd;
      fill: #9B6244;
    }

    .st3 {
      fill: #D19034;
    }

    .st4 {
      fill: #FFD752;
    }

    .st5 {
      fill: #FFB50A;
    }

    .st6 {
      display: none;
      fill: #FFDF75;
    }

    .st7 {
      fill: #9B6244;
    }

    .st8 {
      fill: #FFAF3F;
    }
  </style>
  <path id="Layer_00000054234899348146136670000006184099928309823407_" class="st0" d="M293.8,21.3c122.1,20.1,208,130,198.4,254.1
	c-21.2,286-451.1,286.1-472.3,0C5.6,124.1,144.9-4.7,293.8,21.3z" />
  <path id="Layer" class="st1" d="M256,457.3c-111,0-200.6-89.9-200.6-201.3S145,54.7,256,54.7S456.6,144.6,456.6,256
	S367,457.3,256,457.3z" />
  <path id="Layer_00000132783443355221429150000002662171122769679029_" class="st1" d="M256,393.4c-75.5,0-136.9-61.7-136.9-137.4
	S180.5,118.6,256,118.6S392.9,180.2,392.9,256S331.5,393.4,256,393.4z" />
  <path id="Layer_00000044863747706481363720000009006525155488073858_" class="st2" d="M325.6,87.4c22.2,8.9,42.2,22.3,59.2,39.4
	c17,17.1,30.4,37.1,39.2,59.4c9.6,22.3,14.1,46.1,14.1,69.8c0,74.3-44.4,140.4-112.5,168.6c-68.1,28.2-146.6,12.6-198.4-39.4
	S59.1,254.5,88,186.2c28.1-68.3,94-112.9,168-112.9C279.7,73.3,303.4,77.7,325.6,87.4z M315.2,399.4c18.5-7.4,36.3-19.3,50.3-33.4
	c14.1-14.1,25.9-31.9,33.3-50.5c8.1-18.6,11.8-39.4,11.8-59.4c0-63.1-37.8-119.6-95.5-143.4c-57.7-24.5-124.4-11.1-168.8,33.4
	s-57.7,111.4-33.3,169.4c23.7,57.9,79.9,95.8,142.9,95.8C276,411.3,296.7,407.5,315.2,399.4z" />
  <path class="st3" d="M285.2,243.8l27.5-15.4l42.9-72.2l-72.1,43l-13.8,27.6c-4.9,9.7-17.8,10.5-23.5,1.6l-17.8-29.2l-72.1-43
	l42.9,72.2l27.5,14.6c9.7,4.9,9.7,18.7,0,24.3l-28.3,16.2l-42.9,72.2l72.1-43l15.4-29.2c5.7-9.7,19.4-9.7,25.1,0l14.6,28.4l72.1,43
	l-42.1-71.4l-27.5-17C276.2,261.7,276.2,248.7,285.2,243.8z" />
  <path id="Layer_00000179641409896721886580000014405117115481048994_" class="st4" d="M283.5,312.8l-21.1,92.5l-6.5,30.8l-6.5-30.8
	l-21.1-92.5l-4.9-24.3l4-4.1c2.4,1.6,4,3.2,6.5,4.9c2.4,1.6,4,2.4,6.5,3.2c2.4,0.8,4.9,1.6,7.3,2.4c2.4,0.8,5.7,0.8,8.1,0.8
	c2.4,0,4,0,6.5,0c2.4-0.8,4.9-1.6,7.3-2.4s4-1.6,5.7-2.4c2.4-0.8,4-2.4,5.7-4.1l7.3,1.6L283.5,312.8z" />
  <path id="Layer_00000032617044606383636450000007761447144607352469_" class="st4" d="M288.4,223.6l24.3,4.9l92.3,21.1l30.8,6.5
	l-30.8,6.5l-92.3,21.1l-24.3,4.9l-7.3-1.6c4.9-4.1,8.9-8.1,11.3-13.8c2.4-5.7,3.2-11.4,3.2-17c0-5.7-0.8-11.4-3.2-17
	c-2.4-5.7-6.5-9.7-11.3-13.8L288.4,223.6z" />
  <path id="Layer_00000000224766993514642320000012757845435592470193_" class="st4" d="M216.3,256c0,2.4,0,5.7,0.8,8.1
	c0.8,2.4,1.6,4.9,2.4,7.3c0.8,2.4,1.6,4.1,3.2,6.5c1.6,2.4,3.2,4.1,4.9,6.5l-4,4.1l-24.3-4.9L107,262.5L76.2,256l30.8-6.5l92.3-21.1
	l24.3-4.9l4,4.1c-1.6,2.4-3.2,4.1-4.9,6.5s-2.4,4.1-3.2,6.5c-0.8,2.4-1.6,4.9-2.4,7.3S216.3,253.6,216.3,256z" />
  <path id="Layer_00000067929365382127423290000002059851563750492073_" class="st4"
    d="M262.5,106.7l21.1,92.5l4.9,24.3l-7.3,1.6
	c-1.6-1.6-3.2-3.2-5.7-4.1c-1.6-0.8-3.2-1.6-5.7-2.4c-2.4-0.8-4.9-1.6-7.3-2.4c-2.4,0-4,0-6.5,0s-5.7,0-8.1,0.8
	c-2.4,0.8-4.9,1.6-7.3,2.4c-2.4,0.8-4,1.6-6.5,3.2c-2.4,1.6-4,3.2-6.5,4.9l-4-4.1l4.9-24.3l21.1-92.5l6.5-30.8L262.5,106.7z" />
  <path id="Layer_00000009585286684086612670000001025007978171840947_" class="st5" d="M227.7,284.4l-4,4.1l4.9,24.3l21.1,92.5
	l6.5,30.8V295.7c-2.4,0-5.7,0-8.1-0.8c-2.4-0.8-4.9-1.6-7.3-2.4c-2.4-0.8-4-1.6-6.5-3.2S230.1,286,227.7,284.4z" />
  <path id="Layer_00000141451614471623326740000007934523606665340303_" class="st6"
    d="M256,260.9v17.3l0.8-3.8l2.6-11.4l0.6-3
	l-0.9-0.2c-0.2,0.2-0.4,0.4-0.7,0.5c-0.2,0.1-0.4,0.2-0.7,0.3c-0.3,0.1-0.6,0.2-0.9,0.3C256.5,260.9,256.3,260.9,256,260.9z" />
  <path id="Layer_00000062887904773807859060000002874163661973141173_" class="st5" d="M249.5,106.7l-21.1,92.5l-4.9,24.3l4,4.1
	c2.4-1.6,4-3.2,6.5-4.9c2.4-1.6,4-2.4,6.5-3.2c2.4-0.8,4.9-1.6,7.3-2.4c2.4-0.8,5.7-0.8,8.1-0.8V75.9L249.5,106.7z" />
  <path id="Layer_00000071522313101402620100000004952396872746625428_" class="st6" d="M260,252l-0.6-3l-2.6-11.4l-0.8-3.8v17.3
	c0.3,0,0.5,0,0.8,0c0.3,0.1,0.6,0.2,0.9,0.3c0.3,0.1,0.5,0.2,0.7,0.3c0.3,0.1,0.5,0.3,0.7,0.5L260,252z" />
  <path id="Layer_00000135669225806283094870000002519850032012862875_" class="st5"
    d="M281.1,286.8l7.3,1.6l24.3-4.9l92.3-21.1
	l30.8-6.5H295.7c0,2.4,0,5.7-0.8,8.9c-0.8,2.4-1.6,5.7-3.2,8.1c-0.8,2.4-2.4,4.9-4,7.3C285.2,282.8,283.5,285.2,281.1,286.8z" />
  <path id="Layer_00000077300797135791751010000002488884528540998544_" class="st6"
    d="M263,252.6l-3-0.6l-0.9,0.2
	c0.3,0.2,0.5,0.5,0.8,0.8c0.2,0.3,0.4,0.6,0.5,0.9c0.2,0.3,0.3,0.7,0.4,1c0.1,0.4,0.1,0.8,0.1,1.1h17.3l-3.8-0.8L263,252.6z" />
  <path id="Layer_00000104696370389197478210000002613723562757631935_" class="st5"
    d="M107,262.5l92.3,21.1l24.3,4.9l4-4.1
	c-1.6-2.4-3.2-4.1-4.9-6.5c-1.6-2.4-2.4-4.1-3.2-6.5c-0.8-2.4-1.6-4.9-2.4-7.3c-0.8-2.4-0.8-5.7-0.8-8.1H76.2L107,262.5z" />
  <path id="Layer_00000126317862815917902520000013553538894042314369_" class="st6" d="M252,252l-3,0.6l-11.4,2.6l-3.8,0.8h17.3
	c0-0.3,0-0.7,0.1-1c0.1-0.3,0.2-0.6,0.3-0.9c0.1-0.3,0.2-0.5,0.4-0.8c0.2-0.3,0.4-0.5,0.6-0.8L252,252z" />
  <ellipse class="st7" cx="256" cy="256" rx="41.3" ry="42.2" />
  <path id="Layer_00000030469424911326813040000009201983081732701119_" class="st8" d="M256,276.3c-11.3,0-20.2-8.9-20.2-20.3
	c0-11.4,8.9-20.3,20.2-20.3c11.3,0,20.2,8.9,20.2,20.3C276.2,267.4,267.3,276.3,256,276.3z" />
  <ellipse class="st8" cx="137.7" cy="136" rx="11.6" ry="11.4" />
  <ellipse class="st8" cx="374.9" cy="136.4" rx="11.6" ry="11.4" />
  <ellipse class="st8" cx="137.7" cy="375.2" rx="11.6" ry="11.4" />
  <ellipse class="st8" cx="377.6" cy="373.2" rx="11.6" ry="11.4" />
</svg>